<svg id="enZUwoIXdhq1" xmlns="http://www.w3.org/2000/svg" xmlns:xlink="http://www.w3.org/1999/xlink" viewBox="0 0 1920 1080" shape-rendering="geometricPrecision" text-rendering="geometricPrecision"><ellipse rx="128.042763" ry="128.042763" transform="translate(1607.610076 844.447355)" fill="rgba(28,76,126,0.4)" stroke-width="0"/><ellipse rx="128.042763" ry="128.042763" transform="matrix(.716439 0 0 0.716439 1509.796276 384.951176)" fill="rgba(28,76,126,0.4)" stroke-width="0"/><ellipse rx="128.042763" ry="128.042763" transform="matrix(.436088 0 0 0.436088 474.477348 716.404592)" fill="rgba(28,76,126,0.4)" stroke-width="0"/><ellipse rx="128.042763" ry="128.042763" transform="matrix(1.436088 0 0 1.436088 879.566975 660.56668)" fill="rgba(28,76,126,0.4)" stroke-width="0"/><ellipse rx="128.042763" ry="128.042763" transform="matrix(1.733335 0 0 1.733335 0 1080)" fill="rgba(28,76,126,0.4)" stroke-width="0"/><ellipse rx="238.979871" ry="238.979871" transform="matrix(.711215 0 0 0.711215 327.151866 370.034)" fill="none" stroke="rgba(28,76,126,0.4)" stroke-width="10" stroke-dasharray="20"/><ellipse rx="238.979871" ry="238.979871" transform="matrix(.711215 0 0 0.711215 1679.762345 278.299171)" fill="none" stroke="rgba(28,76,126,0.4)" stroke-width="10" stroke-dasharray="20"/><ellipse rx="238.979871" ry="238.979871" transform="matrix(.455725 0 0 0.455725 1094.972485 785.107287)" fill="none" stroke="rgba(28,76,126,0.4)" stroke-width="10" stroke-dasharray="20"/><ellipse rx="238.979871" ry="238.979871" transform="matrix(.303095 0 0 0.303095 1033.648011 308.977033)" fill="none" stroke="rgba(28,76,126,0.4)" stroke-width="10" stroke-dasharray="20"/></svg>
